<svg width="120" height="111" viewBox="0 0 120 111" fill="none" xmlns="http://www.w3.org/2000/svg">
<path d="M90.062 27.3954C89.6671 12.2439 76.276 0 59.9508 0C43.6257 0 30.2158 12.2263 29.8208 27.3779C13.5521 27.7457 0.424347 40.2348 0.424347 55.4389C0.424347 70.6431 13.5521 83.1321 29.8208 83.5C30.2158 98.6516 43.6257 110.878 59.9508 110.878C76.276 110.878 89.6859 98.6516 90.0808 83.5C106.35 83.1321 119.477 70.6431 119.477 55.4389C119.477 40.2348 106.331 27.7633 90.062 27.3954ZM59.9508 1.4013C75.4484 1.4013 88.1813 13.0146 88.5762 27.3779C74.6961 27.6932 62.9789 36.8017 59.9508 49.1856C56.9416 36.8017 45.2056 27.6932 31.3255 27.3779C31.7204 13.0146 44.4345 1.4013 59.9508 1.4013ZM60.7032 54.7383C61.0981 40.6552 73.436 29.1646 88.5574 28.7967C88.1625 42.8798 75.8434 54.3529 60.7032 54.7383ZM59.1797 54.7383C44.0583 54.3705 31.7204 42.8798 31.3255 28.7967C46.4469 29.1646 58.7848 40.6377 59.1797 54.7383ZM59.1797 56.1571C58.7848 70.2402 46.4469 81.7308 31.3255 82.0987C31.7204 68.0156 44.0583 56.525 59.1797 56.1571ZM60.7032 56.1571C75.8246 56.525 88.1625 68.0156 88.5574 82.0987C73.436 81.7308 61.1169 70.2402 60.7032 56.1571ZM53.2365 55.4389C39.9394 58.2416 30.1594 69.1717 29.8208 82.0987C14.3985 81.7308 1.92897 69.8723 1.92897 55.4389C1.92897 41.0056 14.3985 29.147 29.8208 28.7792C30.1594 41.7062 39.9394 52.6363 53.2365 55.4389ZM59.9508 61.6922C62.9601 74.0762 74.6961 83.1847 88.5762 83.5C88.1813 97.8633 75.4484 109.477 59.9508 109.477C44.4533 109.477 31.7204 97.8633 31.3255 83.5C45.1868 83.1847 56.9228 74.0762 59.9508 61.6922ZM66.6464 55.4389C79.9435 52.6363 89.7235 41.7062 90.062 28.7792C105.484 29.147 117.954 41.0056 117.954 55.4389C117.954 69.8723 105.503 81.7308 90.062 82.0987C89.7235 69.1717 79.9435 58.2591 66.6464 55.4389Z" fill="white"/>
<path d="M30.5545 28.0791C30.5545 43.1956 43.7199 55.4394 59.9321 55.4394C59.9509 40.3229 46.7855 28.0791 30.5545 28.0791Z" fill="white"/>
<path d="M59.9508 55.4387C59.9508 70.5552 73.1162 82.7991 89.3285 82.7991C89.3285 67.7001 76.163 55.4387 59.9508 55.4387Z" fill="white"/>
<path d="M30.5543 82.8174C46.7854 82.8174 59.9321 70.5559 59.9321 55.4568C43.7198 55.4393 30.5543 67.7008 30.5543 82.8174Z" fill="white"/>
<path d="M89.3285 28.0786C73.0974 28.0786 59.9508 40.34 59.9508 55.439C76.163 55.439 89.3285 43.1951 89.3285 28.0786Z" fill="white"/>
</svg>
