<svg width="1920" height="865" viewBox="0 0 1920 865" fill="none" xmlns="http://www.w3.org/2000/svg">
<path d="M-67 -16H1977L1778.84 418.044C1763.77 451.056 1733.52 474.616 1697.82 481.138L459.717 707.331C414.623 715.569 369.102 695.24 345.14 656.16L-67 -16Z" fill="url(#paint0_linear_0_1)"/>
<g filter="url(#filter0_d_0_1)">
<path d="M976.083 660.247C967.538 655.914 959.633 653.587 952.413 653.286C945.194 652.986 933.244 654.831 926.87 658.061C914.898 664.119 920.381 678.944 932.97 686.266C939.071 683.357 945.536 682.033 952.413 682.334C959.633 682.655 967.516 684.962 976.083 689.295L988.924 695.795L1025.75 677.118L1015.43 663.377C1011.95 661.612 1008.48 660.047 1005.01 658.582L988.924 666.727L976.083 660.247Z" fill="#F8A925"/>
<path d="M1075.72 748.413C1088.4 750.058 1099.96 753.529 1110.43 758.825C1112.07 759.667 1113.53 760.47 1114.88 761.292C1114.97 761.252 1115.09 752.706 1115.18 752.646C1121.78 749.296 1124.84 745.765 1124.34 742.034C1123.84 738.323 1119.2 734.231 1110.4 729.777C1099.96 724.481 1088.38 721.011 1075.7 719.366C1063.02 717.721 1044.72 717.3 1020.82 718.102C990.5 719.025 966.419 718.162 948.53 715.554C930.64 712.946 914.441 707.971 899.956 700.629C880.239 690.639 869.934 680.388 869.043 669.876V696.417C868.998 697.259 868.975 698.102 869.043 698.944C869.934 709.456 880.239 719.707 899.956 729.697C914.441 737.039 930.64 742.014 948.53 744.622C966.419 747.23 990.523 748.072 1020.82 747.17C1044.76 746.367 1063.04 746.768 1075.72 748.413Z" fill="#F8A925"/>
<path d="M988.901 695.795V666.747L1025.73 648.071V677.118L988.901 695.795Z" fill="#F8A925"/>
<path opacity="0.8" d="M1046.59 802.015L1078.3 786.007V756.317L1046.59 772.326V802.015Z" fill="url(#paint1_linear_0_1)"/>
<path opacity="0.8" d="M1015.36 786.007L1046.61 802.015V772.326L1015.36 756.337V786.007Z" fill="url(#paint2_linear_0_1)"/>
<path opacity="0.8" d="M1015.36 756.337L1046.61 772.326L1078.3 756.317L1047 740.329L1015.36 756.337Z" fill="url(#paint3_linear_0_1)"/>
<path opacity="0.8" d="M1046.57 806.368L1083.1 787.933V753.709L1046.57 772.145V806.368Z" fill="#49A984"/>
<path opacity="0.8" d="M1010.56 787.933L1046.59 806.368V772.145L1010.56 753.729V787.933Z" fill="#70B452"/>
<path opacity="0.5" d="M1010.56 787.933L1046.59 806.368V772.145L1010.56 753.729V787.933Z" fill="#70B452"/>
<path opacity="0.8" d="M1010.56 753.729L1046.59 772.145L1083.1 753.709L1047.05 735.274L1010.56 753.729Z" fill="#70C286"/>
<path d="M1178.51 769.096C1178.44 768.333 1178.44 744.321 1178.44 744.321C1176.55 753.148 1167.29 762.355 1151.16 770.52C1132.27 780.089 1112.6 784.603 1092.1 784.021C1078.12 783.64 1064.18 780.932 1050.34 776.037V805.084C1064.18 809.979 1078.1 812.687 1092.1 813.068C1112.6 813.65 1132.27 809.137 1151.16 799.568C1170.29 789.878 1179.4 779.728 1178.51 769.096Z" fill="#F8A925"/>
<path d="M1178.51 740.048C1177.62 729.436 1166.95 718.944 1146.53 708.573C1130.85 700.629 1114.13 695.253 1096.35 692.465C1078.58 689.676 1054.41 688.794 1023.88 689.837C999.983 690.639 981.682 690.278 969.002 688.753C956.322 687.229 945.469 684.18 936.445 679.606C920.543 671.541 919.058 664.219 932.058 657.64C938.432 654.41 945.218 652.945 952.461 653.266C959.68 653.587 967.563 655.894 976.131 660.227L988.971 666.727L1025.8 648.051L1015.47 642.815C995.277 632.584 975.011 627.148 954.631 626.506C934.274 625.884 914.739 630.277 896.096 639.746C877.201 649.314 868.222 659.365 869.113 669.856C870.004 680.368 880.308 690.619 900.026 700.609C914.511 707.951 930.71 712.926 948.599 715.534C966.489 718.142 990.593 718.985 1020.89 718.082C1044.81 717.279 1063.09 717.701 1075.77 719.346C1088.45 720.991 1100.01 724.461 1110.47 729.757C1119.27 734.211 1123.91 738.303 1124.41 742.014C1124.91 745.745 1121.85 749.276 1115.25 752.626C1106.48 757.08 1097.15 758.303 1087.24 756.377L1050.43 774.673V776.017C1064.28 780.911 1078.19 783.62 1092.2 784.001C1112.69 784.582 1132.36 780.069 1151.26 770.5C1170.29 760.831 1179.4 750.68 1178.51 740.048Z" fill="#FDD04F"/>
</g>
<g filter="url(#filter1_d_0_1)">
<path d="M1211.74 519.302L1248.38 537.256L1208.49 557.477L1171.84 539.523L1211.74 519.302Z" fill="#49A984"/>
<path d="M1250.49 499.663L1287.13 517.617L1332.3 494.728L1295.65 476.774L1250.49 499.663Z" fill="#49A984"/>
<path d="M1334.4 457.115L1371.05 475.069L1406.81 456.954L1370.16 439L1334.4 457.115Z" fill="#49A984"/>
<path d="M1352.89 688.914L1316.24 670.94L1334.4 457.115L1371.05 475.069L1352.89 688.914Z" fill="#49A984"/>
<path d="M1328.53 762.014L1291.88 744.06L1272.33 575.03L1309.73 592.603L1328.53 762.014Z" fill="#49A984"/>
<path d="M1267.16 733.97L1287.13 517.617L1250.49 499.663L1230.52 716.016L1267.16 733.97Z" fill="#49A984"/>
<path opacity="0.8" d="M1232.15 808.888L1266.42 792.54V762.22L1232.15 778.568V808.888Z" fill="url(#paint4_linear_0_1)"/>
<path opacity="0.8" d="M1198.39 792.54L1232.17 808.888V778.568L1198.39 762.24V792.54Z" fill="url(#paint5_linear_0_1)"/>
<path opacity="0.8" d="M1198.39 762.241L1232.17 778.568L1266.42 762.22L1232.59 745.892L1198.39 762.241Z" fill="url(#paint6_linear_0_1)"/>
<path opacity="0.8" d="M1232.12 813.334L1271.6 794.507V759.557L1232.12 778.384V813.334Z" fill="#7AAAF8"/>
<path opacity="0.8" d="M1193.21 794.507L1232.15 813.334V778.384L1193.21 759.577V794.507Z" fill="#7682CD"/>
<path opacity="0.5" d="M1193.21 794.507L1232.15 813.334V778.384L1193.21 759.577V794.507Z" fill="#7682CD"/>
<path opacity="0.8" d="M1193.21 759.577L1232.15 778.384L1271.6 759.557L1232.64 740.73L1193.21 759.577Z" fill="#7AAAF8"/>
<path d="M1231.75 776.618L1208.49 557.477L1171.84 539.523L1195.19 757.701L1231.75 776.618Z" fill="#49A984"/>
<path d="M1371.05 475.069L1352.61 688.392L1351.86 688.774L1332.3 494.728L1287.13 517.617L1267.58 731.502L1266.82 731.884L1248.38 537.256L1208.49 557.477L1231.75 776.619L1269.15 757.581V791.985L1290.15 781.473L1308.97 592.985L1309.73 592.603L1328.53 762.014L1380.08 735.896L1406.81 456.954L1371.05 475.069Z" fill="#70C286"/>
</g>
<g filter="url(#filter2_d_0_1)">
<path d="M1343.88 811.299L1551.26 705.982C1566.19 698.419 1580.01 696.786 1592.8 701.021L1594.94 699.932C1612.46 691.058 1613.93 682.93 1599.37 675.549C1584.81 668.167 1568.78 668.914 1551.26 677.787L1343.67 782.721L1343.88 811.299Z" fill="url(#paint7_linear_0_1)"/>
</g>
<g filter="url(#filter3_d_0_1)">
<path opacity="0.8" d="M1383.03 831.044L1414.74 815.035V785.346L1383.03 801.354V831.044Z" fill="url(#paint8_linear_0_1)"/>
<path opacity="0.8" d="M1351.8 815.035L1383.05 831.044V801.354L1351.8 785.366V815.035Z" fill="url(#paint9_linear_0_1)"/>
<path opacity="0.8" d="M1351.8 785.366L1383.05 801.354L1414.74 785.346L1383.44 769.358L1351.8 785.366Z" fill="url(#paint10_linear_0_1)"/>
<path opacity="0.8" d="M1383.01 835.397L1419.54 816.961V782.738L1383.01 801.174V835.397Z" fill="#7682CD"/>
<path opacity="0.8" d="M1347 816.961L1383.03 835.397V801.174L1347 782.758V816.961Z" fill="#F17B71"/>
<path opacity="0.5" d="M1347 816.961L1383.03 835.397V801.174L1347 782.758V816.961Z" fill="#7682CD"/>
<path opacity="0.8" d="M1347 782.758L1383.03 801.174L1419.54 782.738L1383.49 764.302L1347 782.758Z" fill="#F17B71"/>
</g>
<g filter="url(#filter4_d_0_1)">
<path d="M1633.51 723.049L1494.65 793.197C1473.52 803.872 1451.72 809.389 1429.27 809.728C1415.5 809.947 1402.11 808.114 1389.07 804.31V832.154C1402.09 835.958 1415.5 837.791 1429.27 837.572C1451.72 837.233 1473.52 831.716 1494.65 821.041L1633.51 750.893C1654.63 740.217 1665.54 729.203 1666.24 717.87C1666.29 717.153 1666.29 716.436 1666.24 715.719V690.026C1665.54 701.379 1654.63 712.373 1633.51 723.049Z" fill="#7682CD"/>
</g>
<g filter="url(#filter5_d_0_1)">
<path d="M1636.42 656.774C1615.85 646.38 1594.29 641.363 1571.77 641.703C1549.23 642.043 1527.38 647.58 1506.19 658.293L1366.89 728.693C1345.7 739.406 1334.73 750.46 1334.05 761.833C1333.61 768.809 1337.2 775.585 1344.76 782.201L1550.74 678.122C1568.16 669.327 1584.1 668.587 1598.58 675.903C1613.06 683.219 1611.6 691.274 1594.17 700.069L1388.19 804.149C1401.26 807.967 1414.71 809.805 1428.52 809.586C1451.04 809.246 1472.92 803.709 1494.11 792.995L1633.41 722.596C1654.6 711.882 1665.54 700.829 1666.25 689.455C1666.91 678.062 1656.97 667.168 1636.42 656.774Z" fill="#7AAAF8"/>
</g>
<g filter="url(#filter6_d_0_1)">
<path d="M1343.67 782.354C1337.6 776.315 1334.36 770.133 1334.03 763.808V790.194C1333.68 796.602 1338.1 805.056 1343.67 811.299V782.354Z" fill="url(#paint11_linear_0_1)"/>
</g>
<g filter="url(#filter7_d_0_1)">
<path opacity="0.8" d="M1622.06 845.647L1653.77 829.639V799.949L1622.06 815.957V845.647Z" fill="url(#paint12_linear_0_1)"/>
<path opacity="0.8" d="M1590.83 829.639L1622.08 845.647V815.957L1590.83 799.969V829.639Z" fill="url(#paint13_linear_0_1)"/>
<path opacity="0.8" d="M1590.83 799.969L1622.08 815.957L1653.77 799.949L1622.47 783.961L1590.83 799.969Z" fill="url(#paint14_linear_0_1)"/>
<path opacity="0.8" d="M1622.04 850L1658.57 831.564V797.341L1622.04 815.777V850Z" fill="#FDD04F"/>
<path opacity="0.8" d="M1586.03 831.564L1622.06 850V815.777L1586.03 797.361V831.564Z" fill="#FDD04F"/>
<path opacity="0.5" d="M1586.03 831.564L1622.06 850V815.777L1586.03 797.361V831.564Z" fill="#FDD04F"/>
<path opacity="0.8" d="M1586.03 797.361L1622.06 815.777L1658.57 797.341L1622.52 778.905L1586.03 797.361Z" fill="#FDD04F"/>
</g>
<g filter="url(#filter8_d_0_1)">
<path d="M1542.3 543.034L1577.65 524.638L1701 587.167L1665.65 605.583L1542.3 543.034Z" fill="#F78F87"/>
<path d="M1665.65 643.978L1701 625.563V587.167L1665.65 605.582V643.978Z" fill="#CC685F"/>
<path d="M1621.83 813.59L1657.18 795.174V603.356L1621.83 621.751V813.59Z" fill="#CC685F"/>
<path d="M1586.12 603.657L1542.3 581.43V543.034L1665.65 605.562V643.958L1621.83 621.731V813.55L1586.12 795.455V603.657V603.657Z" fill="#F17B71"/>
</g>
<g filter="url(#filter9_d_0_1)">
<path d="M145 53.8279L72.9999 53.2206L36.3999 25.1829L108.4 25.7902L145 53.8279Z" fill="#7AAAF8"/>
<path d="M133.6 130.755L61.6001 130.147L73.0001 53.2206L145 53.8279L133.6 130.755Z" fill="#7682CD"/>
<path d="M61.6 130.147L25 102.211L36.4 25.1829L73 53.0182L61.6 130.147Z" fill="#626CAA"/>
<path d="M1564 301.663L1528 301.36L1509.7 287.341L1545.7 287.644L1564 301.663Z" fill="#7AAAF8"/>
<path d="M1558.3 340.127L1522.3 339.823L1528 301.36L1564 301.663L1558.3 340.127Z" fill="#7682CD"/>
<path d="M1522.3 339.823L1504 325.855L1509.7 287.341L1528 301.258L1522.3 339.823Z" fill="#626CAA"/>
<path d="M1226 217.183L1181 216.804L1158.12 199.28L1203.12 199.66L1226 217.183Z" fill="#F68F87"/>
<path d="M1218.88 265.262L1173.88 264.883L1181 216.804L1226 217.183L1218.88 265.262Z" fill="#F17B71"/>
<path d="M1173.88 264.883L1151 247.422L1158.13 199.28L1181 216.677L1173.88 264.883Z" fill="#CC685F"/>
<path d="M563.036 223.239L540.575 222.12L528.343 199.28L550.804 200.399L563.036 223.239Z" fill="#FDD04F"/>
<path d="M547.694 243.106L525.198 241.987L540.575 222.12L563.036 223.239L547.694 243.106Z" fill="#F8A925"/>
<path d="M525.198 241.987L513 219.147L528.343 199.28L540.575 222.12L525.198 241.987Z" fill="#FFB53A"/>
<path d="M1636 470.045L1619.39 469.217L1610.35 452.328L1626.95 453.156L1636 470.045Z" fill="#FDD04F"/>
<path d="M1624.65 484.736L1608.02 483.908L1619.39 469.217L1636 470.045L1624.65 484.736Z" fill="#F8A925"/>
<path d="M1608.02 483.908L1599 467.019L1610.35 452.328L1619.39 469.217L1608.02 483.908Z" fill="#FFB53A"/>
<path d="M1885 130.271L1832.03 127.631L1803.18 73.7681L1856.15 76.4077L1885 130.271Z" fill="#70C286"/>
<path d="M1848.82 177.122L1795.77 174.483L1832.03 127.631L1885 130.271L1848.82 177.122Z" fill="#49A984"/>
<path d="M1795.77 174.483L1767 120.62L1803.18 73.7681L1832.03 127.631L1795.77 174.483Z" fill="#62A774"/>
<path d="M277.219 573.552L257.369 572.563L246.559 552.379L266.408 553.368L277.219 573.552Z" fill="#70C286"/>
<path d="M263.66 591.109L243.78 590.12L257.369 572.563L277.219 573.552L263.66 591.109Z" fill="#49A984"/>
<path d="M243.78 590.12L233 569.936L246.559 552.379L257.369 572.563L243.78 590.12Z" fill="#62A774"/>
<path d="M649 18.5935L627.4 18.4113L616.42 10L638.02 10.1822L649 18.5935Z" fill="#F68F87"/>
<path d="M645.58 41.6715L623.98 41.4893L627.4 18.4113L649 18.5935L645.58 41.6715Z" fill="#F17B71"/>
<path d="M623.98 41.4893L613 33.1084L616.42 10L627.4 18.3506L623.98 41.4893Z" fill="#CC685F"/>
</g>
<defs>
<filter id="filter0_d_0_1" x="869" y="595.448" width="356.573" height="232.671" filterUnits="userSpaceOnUse" color-interpolation-filters="sRGB">
<feFlood flood-opacity="0" result="BackgroundImageFix"/>
<feColorMatrix in="SourceAlpha" type="matrix" values="0 0 0 0 0 0 0 0 0 0 0 0 0 0 0 0 0 0 127 0" result="hardAlpha"/>
<feOffset dx="24" dy="-8"/>
<feGaussianBlur stdDeviation="11.5"/>
<feColorMatrix type="matrix" values="0 0 0 0 0 0 0 0 0 0 0 0 0 0 0 0 0 0 0.08 0"/>
<feBlend mode="normal" in2="BackgroundImageFix" result="effect1_dropShadow_0_1"/>
<feBlend mode="normal" in="SourceGraphic" in2="effect1_dropShadow_0_1" result="shape"/>
</filter>
<filter id="filter1_d_0_1" x="1171.84" y="408" width="281.963" height="420.334" filterUnits="userSpaceOnUse" color-interpolation-filters="sRGB">
<feFlood flood-opacity="0" result="BackgroundImageFix"/>
<feColorMatrix in="SourceAlpha" type="matrix" values="0 0 0 0 0 0 0 0 0 0 0 0 0 0 0 0 0 0 127 0" result="hardAlpha"/>
<feOffset dx="24" dy="-8"/>
<feGaussianBlur stdDeviation="11.5"/>
<feColorMatrix type="matrix" values="0 0 0 0 0 0 0 0 0 0 0 0 0 0 0 0 0 0 0.08 0"/>
<feBlend mode="normal" in2="BackgroundImageFix" result="effect1_dropShadow_0_1"/>
<feBlend mode="normal" in="SourceGraphic" in2="effect1_dropShadow_0_1" result="shape"/>
</filter>
<filter id="filter2_d_0_1" x="1343.67" y="639.521" width="312.617" height="186.778" filterUnits="userSpaceOnUse" color-interpolation-filters="sRGB">
<feFlood flood-opacity="0" result="BackgroundImageFix"/>
<feColorMatrix in="SourceAlpha" type="matrix" values="0 0 0 0 0 0 0 0 0 0 0 0 0 0 0 0 0 0 127 0" result="hardAlpha"/>
<feOffset dx="24" dy="-8"/>
<feGaussianBlur stdDeviation="11.5"/>
<feColorMatrix type="matrix" values="0 0 0 0 0 0 0 0 0 0 0 0 0 0 0 0 0 0 0.08 0"/>
<feBlend mode="normal" in2="BackgroundImageFix" result="effect1_dropShadow_0_1"/>
<feBlend mode="normal" in="SourceGraphic" in2="effect1_dropShadow_0_1" result="shape"/>
</filter>
<filter id="filter3_d_0_1" x="1347" y="733.302" width="119.541" height="117.095" filterUnits="userSpaceOnUse" color-interpolation-filters="sRGB">
<feFlood flood-opacity="0" result="BackgroundImageFix"/>
<feColorMatrix in="SourceAlpha" type="matrix" values="0 0 0 0 0 0 0 0 0 0 0 0 0 0 0 0 0 0 127 0" result="hardAlpha"/>
<feOffset dx="24" dy="-8"/>
<feGaussianBlur stdDeviation="11.5"/>
<feColorMatrix type="matrix" values="0 0 0 0 0 0 0 0 0 0 0 0 0 0 0 0 0 0 0.08 0"/>
<feBlend mode="normal" in2="BackgroundImageFix" result="effect1_dropShadow_0_1"/>
<feBlend mode="normal" in="SourceGraphic" in2="effect1_dropShadow_0_1" result="shape"/>
</filter>
<filter id="filter4_d_0_1" x="1389.07" y="659.026" width="324.208" height="193.563" filterUnits="userSpaceOnUse" color-interpolation-filters="sRGB">
<feFlood flood-opacity="0" result="BackgroundImageFix"/>
<feColorMatrix in="SourceAlpha" type="matrix" values="0 0 0 0 0 0 0 0 0 0 0 0 0 0 0 0 0 0 127 0" result="hardAlpha"/>
<feOffset dx="24" dy="-8"/>
<feGaussianBlur stdDeviation="11.5"/>
<feColorMatrix type="matrix" values="0 0 0 0 0 0 0 0 0 0 0 0 0 0 0 0 0 0 0.08 0"/>
<feBlend mode="normal" in2="BackgroundImageFix" result="effect1_dropShadow_0_1"/>
<feBlend mode="normal" in="SourceGraphic" in2="effect1_dropShadow_0_1" result="shape"/>
</filter>
<filter id="filter5_d_0_1" x="1334.01" y="610.687" width="379.263" height="213.916" filterUnits="userSpaceOnUse" color-interpolation-filters="sRGB">
<feFlood flood-opacity="0" result="BackgroundImageFix"/>
<feColorMatrix in="SourceAlpha" type="matrix" values="0 0 0 0 0 0 0 0 0 0 0 0 0 0 0 0 0 0 127 0" result="hardAlpha"/>
<feOffset dx="24" dy="-8"/>
<feGaussianBlur stdDeviation="11.5"/>
<feColorMatrix type="matrix" values="0 0 0 0 0 0 0 0 0 0 0 0 0 0 0 0 0 0 0.08 0"/>
<feBlend mode="normal" in2="BackgroundImageFix" result="effect1_dropShadow_0_1"/>
<feBlend mode="normal" in="SourceGraphic" in2="effect1_dropShadow_0_1" result="shape"/>
</filter>
<filter id="filter6_d_0_1" x="1334.01" y="732.808" width="56.6588" height="93.4915" filterUnits="userSpaceOnUse" color-interpolation-filters="sRGB">
<feFlood flood-opacity="0" result="BackgroundImageFix"/>
<feColorMatrix in="SourceAlpha" type="matrix" values="0 0 0 0 0 0 0 0 0 0 0 0 0 0 0 0 0 0 127 0" result="hardAlpha"/>
<feOffset dx="24" dy="-8"/>
<feGaussianBlur stdDeviation="11.5"/>
<feColorMatrix type="matrix" values="0 0 0 0 0 0 0 0 0 0 0 0 0 0 0 0 0 0 0.08 0"/>
<feBlend mode="normal" in2="BackgroundImageFix" result="effect1_dropShadow_0_1"/>
<feBlend mode="normal" in="SourceGraphic" in2="effect1_dropShadow_0_1" result="shape"/>
</filter>
<filter id="filter7_d_0_1" x="1586.03" y="747.905" width="119.541" height="117.095" filterUnits="userSpaceOnUse" color-interpolation-filters="sRGB">
<feFlood flood-opacity="0" result="BackgroundImageFix"/>
<feColorMatrix in="SourceAlpha" type="matrix" values="0 0 0 0 0 0 0 0 0 0 0 0 0 0 0 0 0 0 127 0" result="hardAlpha"/>
<feOffset dx="24" dy="-8"/>
<feGaussianBlur stdDeviation="11.5"/>
<feColorMatrix type="matrix" values="0 0 0 0 0 0 0 0 0 0 0 0 0 0 0 0 0 0 0.08 0"/>
<feBlend mode="normal" in2="BackgroundImageFix" result="effect1_dropShadow_0_1"/>
<feBlend mode="normal" in="SourceGraphic" in2="effect1_dropShadow_0_1" result="shape"/>
</filter>
<filter id="filter8_d_0_1" x="1542.3" y="493.638" width="205.698" height="334.952" filterUnits="userSpaceOnUse" color-interpolation-filters="sRGB">
<feFlood flood-opacity="0" result="BackgroundImageFix"/>
<feColorMatrix in="SourceAlpha" type="matrix" values="0 0 0 0 0 0 0 0 0 0 0 0 0 0 0 0 0 0 127 0" result="hardAlpha"/>
<feOffset dx="24" dy="-8"/>
<feGaussianBlur stdDeviation="11.5"/>
<feColorMatrix type="matrix" values="0 0 0 0 0 0 0 0 0 0 0 0 0 0 0 0 0 0 0.08 0"/>
<feBlend mode="normal" in2="BackgroundImageFix" result="effect1_dropShadow_0_1"/>
<feBlend mode="normal" in="SourceGraphic" in2="effect1_dropShadow_0_1" result="shape"/>
</filter>
<filter id="filter9_d_0_1" x="25" y="10" width="1874" height="600.109" filterUnits="userSpaceOnUse" color-interpolation-filters="sRGB">
<feFlood flood-opacity="0" result="BackgroundImageFix"/>
<feColorMatrix in="SourceAlpha" type="matrix" values="0 0 0 0 0 0 0 0 0 0 0 0 0 0 0 0 0 0 127 0" result="hardAlpha"/>
<feOffset dx="7" dy="12"/>
<feGaussianBlur stdDeviation="3.5"/>
<feColorMatrix type="matrix" values="0 0 0 0 0 0 0 0 0 0 0 0 0 0 0 0 0 0 0.07 0"/>
<feBlend mode="normal" in2="BackgroundImageFix" result="effect1_dropShadow_0_1"/>
<feBlend mode="normal" in="SourceGraphic" in2="effect1_dropShadow_0_1" result="shape"/>
</filter>
<linearGradient id="paint0_linear_0_1" x1="-162.5" y1="-63.9999" x2="2120.78" y2="672.353" gradientUnits="userSpaceOnUse">
<stop stop-color="#FDD04F"/>
<stop offset="1" stop-color="#F17B71"/>
</linearGradient>
<linearGradient id="paint1_linear_0_1" x1="1056.12" y1="780.828" x2="1137.4" y2="753.11" gradientUnits="userSpaceOnUse">
<stop offset="0.0354" stop-color="#FFA98C"/>
<stop offset="0.3169" stop-color="#FFB892"/>
<stop offset="0.8601" stop-color="#FEE1A3"/>
<stop offset="1" stop-color="#FEECA8"/>
</linearGradient>
<linearGradient id="paint2_linear_0_1" x1="977.991" y1="789.607" x2="1084.83" y2="762.33" gradientUnits="userSpaceOnUse">
<stop offset="0.0354" stop-color="#FFA98C"/>
<stop offset="0.3169" stop-color="#FFB892"/>
<stop offset="0.8601" stop-color="#FEE1A3"/>
<stop offset="1" stop-color="#FEECA8"/>
</linearGradient>
<linearGradient id="paint3_linear_0_1" x1="1079.62" y1="701.47" x2="1051.01" y2="763.556" gradientUnits="userSpaceOnUse">
<stop offset="0.0354" stop-color="#FFA98C"/>
<stop offset="0.3169" stop-color="#FFB892"/>
<stop offset="0.8601" stop-color="#FEE1A3"/>
<stop offset="1" stop-color="#FEECA8"/>
</linearGradient>
<linearGradient id="paint4_linear_0_1" x1="1242.45" y1="787.251" x2="1329.2" y2="755.943" gradientUnits="userSpaceOnUse">
<stop offset="0.0354" stop-color="#FFA98C"/>
<stop offset="0.3169" stop-color="#FFB892"/>
<stop offset="0.8601" stop-color="#FEE1A3"/>
<stop offset="1" stop-color="#FEECA8"/>
</linearGradient>
<linearGradient id="paint5_linear_0_1" x1="1158.01" y1="796.216" x2="1272.63" y2="765.248" gradientUnits="userSpaceOnUse">
<stop offset="0.0354" stop-color="#FFA98C"/>
<stop offset="0.3169" stop-color="#FFB892"/>
<stop offset="0.8601" stop-color="#FEE1A3"/>
<stop offset="1" stop-color="#FEECA8"/>
</linearGradient>
<linearGradient id="paint6_linear_0_1" x1="1267.84" y1="706.209" x2="1239.71" y2="770.823" gradientUnits="userSpaceOnUse">
<stop offset="0.0354" stop-color="#FFA98C"/>
<stop offset="0.3169" stop-color="#FFB892"/>
<stop offset="0.8601" stop-color="#FEE1A3"/>
<stop offset="1" stop-color="#FEECA8"/>
</linearGradient>
<linearGradient id="paint7_linear_0_1" x1="1671.71" y1="740.905" x2="1463.7" y2="740.905" gradientUnits="userSpaceOnUse">
<stop stop-color="#655AD8"/>
<stop offset="0.2929" stop-color="#7334CF"/>
<stop offset="0.5303" stop-color="#5E6DDD"/>
<stop offset="0.7031" stop-color="#6C47D4"/>
<stop offset="0.8081" stop-color="#7335CF"/>
<stop offset="1" stop-color="#6A4DD5"/>
</linearGradient>
<linearGradient id="paint8_linear_0_1" x1="1392.56" y1="809.857" x2="1473.84" y2="782.138" gradientUnits="userSpaceOnUse">
<stop offset="0.0354" stop-color="#FFA98C"/>
<stop offset="0.3169" stop-color="#FFB892"/>
<stop offset="0.8601" stop-color="#FEE1A3"/>
<stop offset="1" stop-color="#FEECA8"/>
</linearGradient>
<linearGradient id="paint9_linear_0_1" x1="1314.43" y1="818.635" x2="1421.27" y2="791.358" gradientUnits="userSpaceOnUse">
<stop offset="0.0354" stop-color="#FFA98C"/>
<stop offset="0.3169" stop-color="#FFB892"/>
<stop offset="0.8601" stop-color="#FEE1A3"/>
<stop offset="1" stop-color="#FEECA8"/>
</linearGradient>
<linearGradient id="paint10_linear_0_1" x1="1416.06" y1="730.499" x2="1387.45" y2="792.585" gradientUnits="userSpaceOnUse">
<stop offset="0.0354" stop-color="#FFA98C"/>
<stop offset="0.3169" stop-color="#FFB892"/>
<stop offset="0.8601" stop-color="#FEE1A3"/>
<stop offset="1" stop-color="#FEECA8"/>
</linearGradient>
<linearGradient id="paint11_linear_0_1" x1="1306.87" y1="787.547" x2="1411.92" y2="787.547" gradientUnits="userSpaceOnUse">
<stop offset="0.0303" stop-color="#7C1DC9"/>
<stop offset="0.2208" stop-color="#6F41D2"/>
<stop offset="0.5455" stop-color="#5586E3"/>
<stop offset="1" stop-color="#7C1DC9"/>
</linearGradient>
<linearGradient id="paint12_linear_0_1" x1="1631.59" y1="824.46" x2="1712.87" y2="796.742" gradientUnits="userSpaceOnUse">
<stop offset="0.0354" stop-color="#FFA98C"/>
<stop offset="0.3169" stop-color="#FFB892"/>
<stop offset="0.8601" stop-color="#FEE1A3"/>
<stop offset="1" stop-color="#FEECA8"/>
</linearGradient>
<linearGradient id="paint13_linear_0_1" x1="1553.46" y1="833.239" x2="1660.3" y2="805.961" gradientUnits="userSpaceOnUse">
<stop offset="0.0354" stop-color="#FFA98C"/>
<stop offset="0.3169" stop-color="#FFB892"/>
<stop offset="0.8601" stop-color="#FEE1A3"/>
<stop offset="1" stop-color="#FEECA8"/>
</linearGradient>
<linearGradient id="paint14_linear_0_1" x1="1655.09" y1="745.102" x2="1626.48" y2="807.188" gradientUnits="userSpaceOnUse">
<stop offset="0.0354" stop-color="#FFA98C"/>
<stop offset="0.3169" stop-color="#FFB892"/>
<stop offset="0.8601" stop-color="#FEE1A3"/>
<stop offset="1" stop-color="#FEECA8"/>
</linearGradient>
</defs>
</svg>
