<svg width="1874" height="601" viewBox="0 0 1874 601" fill="none" xmlns="http://www.w3.org/2000/svg">
<g filter="url(#filter0_d_34_140)">
<path d="M120 43.8279L47.9999 43.2206L11.3999 15.1829L83.3999 15.7902L120 43.8279Z" fill="#7AAAF8"/>
<path d="M108.6 120.755L36.6001 120.147L48.0001 43.2206L120 43.8279L108.6 120.755Z" fill="#7682CD"/>
<path d="M36.6 120.147L0 92.2107L11.4 15.1829L48 43.0182L36.6 120.147Z" fill="#626CAA"/>
<path d="M1539 291.663L1503 291.36L1484.7 277.341L1520.7 277.644L1539 291.663Z" fill="#7AAAF8"/>
<path d="M1533.3 330.127L1497.3 329.823L1503 291.36L1539 291.663L1533.3 330.127Z" fill="#7682CD"/>
<path d="M1497.3 329.823L1479 315.855L1484.7 277.341L1503 291.258L1497.3 329.823Z" fill="#626CAA"/>
<path d="M1201 207.183L1156 206.804L1133.12 189.28L1178.12 189.66L1201 207.183Z" fill="#F68F87"/>
<path d="M1193.88 255.262L1148.88 254.883L1156 206.804L1201 207.183L1193.88 255.262Z" fill="#F17B71"/>
<path d="M1148.88 254.883L1126 237.422L1133.13 189.28L1156 206.677L1148.88 254.883Z" fill="#CC685F"/>
<path d="M538.036 213.239L515.575 212.12L503.343 189.28L525.804 190.399L538.036 213.239Z" fill="#FDD04F"/>
<path d="M522.694 233.106L500.198 231.987L515.575 212.12L538.036 213.239L522.694 233.106Z" fill="#F8A925"/>
<path d="M500.198 231.987L488 209.147L503.343 189.28L515.575 212.12L500.198 231.987Z" fill="#FFB53A"/>
<path d="M1611 460.045L1594.39 459.217L1585.35 442.328L1601.95 443.156L1611 460.045Z" fill="#FDD04F"/>
<path d="M1599.65 474.736L1583.02 473.908L1594.39 459.217L1611 460.045L1599.65 474.736Z" fill="#F8A925"/>
<path d="M1583.02 473.908L1574 457.019L1585.35 442.328L1594.39 459.217L1583.02 473.908Z" fill="#FFB53A"/>
<path d="M1860 120.271L1807.03 117.631L1778.18 63.7681L1831.15 66.4077L1860 120.271Z" fill="#70C286"/>
<path d="M1823.82 167.122L1770.77 164.483L1807.03 117.631L1860 120.271L1823.82 167.122Z" fill="#49A984"/>
<path d="M1770.77 164.483L1742 110.62L1778.18 63.7681L1807.03 117.631L1770.77 164.483Z" fill="#62A774"/>
<path d="M252.219 563.552L232.369 562.563L221.559 542.379L241.408 543.368L252.219 563.552Z" fill="#70C286"/>
<path d="M238.66 581.109L218.78 580.12L232.369 562.563L252.219 563.552L238.66 581.109Z" fill="#49A984"/>
<path d="M218.78 580.12L208 559.936L221.559 542.379L232.369 562.563L218.78 580.12Z" fill="#62A774"/>
<path d="M624 8.59352L602.4 8.41133L591.42 0L613.02 0.182187L624 8.59352Z" fill="#F68F87"/>
<path d="M620.58 31.6715L598.98 31.4893L602.4 8.41132L624 8.5935L620.58 31.6715Z" fill="#F17B71"/>
<path d="M598.98 31.4893L588 23.1084L591.42 0L602.4 8.3506L598.98 31.4893Z" fill="#CC685F"/>
</g>
<defs>
<filter id="filter0_d_34_140" x="0" y="0" width="1874" height="600.109" filterUnits="userSpaceOnUse" color-interpolation-filters="sRGB">
<feFlood flood-opacity="0" result="BackgroundImageFix"/>
<feColorMatrix in="SourceAlpha" type="matrix" values="0 0 0 0 0 0 0 0 0 0 0 0 0 0 0 0 0 0 127 0" result="hardAlpha"/>
<feOffset dx="7" dy="12"/>
<feGaussianBlur stdDeviation="3.5"/>
<feColorMatrix type="matrix" values="0 0 0 0 0 0 0 0 0 0 0 0 0 0 0 0 0 0 0.07 0"/>
<feBlend mode="normal" in2="BackgroundImageFix" result="effect1_dropShadow_34_140"/>
<feBlend mode="normal" in="SourceGraphic" in2="effect1_dropShadow_34_140" result="shape"/>
</filter>
</defs>
</svg>
