<svg width="56" height="53" viewBox="0 0 56 53" fill="none" xmlns="http://www.w3.org/2000/svg">
<path d="M42.1637 13.6202C41.9779 6.49327 35.679 0.734009 28 0.734009C20.321 0.734009 14.0133 6.48503 13.8275 13.612C6.17504 13.785 0 19.6596 0 26.8113C0 33.963 6.17504 39.8376 13.8275 40.0107C14.0133 47.1377 20.321 52.8887 28 52.8887C35.679 52.8887 41.9867 47.1377 42.1725 40.0107C49.825 39.8376 56 33.963 56 26.8113C56 19.6596 49.8161 13.7933 42.1637 13.6202ZM28 1.39315C35.2897 1.39315 41.279 6.8558 41.4648 13.612C34.9359 13.7603 29.4243 18.0447 28 23.8699C26.5845 18.0447 21.0641 13.7603 14.5352 13.612C14.721 6.8558 20.7014 1.39315 28 1.39315ZM28.3539 26.4818C28.5397 19.8574 34.3431 14.4524 41.4559 14.2794C41.2701 20.9038 35.4755 26.3005 28.3539 26.4818ZM27.6373 26.4818C20.5245 26.3087 14.721 20.9038 14.5352 14.2794C21.648 14.4524 27.4515 19.8491 27.6373 26.4818ZM27.6373 27.1492C27.4515 33.7735 21.648 39.1785 14.5352 39.3515C14.721 32.7271 20.5245 27.3222 27.6373 27.1492ZM28.3539 27.1492C35.4667 27.3222 41.2701 32.7271 41.4559 39.3515C34.3431 39.1785 28.5485 33.7735 28.3539 27.1492ZM24.8417 26.8113C18.587 28.1296 13.9867 33.2709 13.8275 39.3515C6.57314 39.1785 0.707741 33.6005 0.707741 26.8113C0.707741 20.0222 6.57314 14.4442 13.8275 14.2712C13.9867 20.3517 18.587 25.4931 24.8417 26.8113ZM28 29.7528C29.4155 35.5779 34.9359 39.8624 41.4648 40.0107C41.279 46.7669 35.2897 52.2295 28 52.2295C20.7103 52.2295 14.721 46.7669 14.5352 40.0107C21.0553 39.8624 26.5757 35.5779 28 29.7528ZM31.1495 26.8113C37.4041 25.4931 42.0044 20.3517 42.1637 14.2712C49.418 14.4442 55.2834 20.0222 55.2834 26.8113C55.2834 33.6005 49.4269 39.1785 42.1637 39.3515C42.0044 33.2709 37.4041 28.1379 31.1495 26.8113Z" fill="white"/>
<path d="M14.1725 13.9416C14.1725 21.0521 20.3652 26.8113 27.9911 26.8113C28 19.7008 21.8072 13.9416 14.1725 13.9416Z" fill="white"/>
<path d="M28 26.8113C28 33.9218 34.1927 39.6811 41.8186 39.6811C41.8186 32.5788 35.6259 26.8113 28 26.8113Z" fill="white"/>
<path d="M14.1725 39.6893C21.8073 39.6893 27.9911 33.9218 27.9911 26.8196C20.3652 26.8113 14.1725 32.5788 14.1725 39.6893Z" fill="white"/>
<path d="M41.8186 13.9416C34.1839 13.9416 28 19.7091 28 26.8113C35.6259 26.8113 41.8186 21.0521 41.8186 13.9416Z" fill="white"/>
</svg>
