<svg width="1920" height="721" viewBox="0 0 1920 721" fill="none" xmlns="http://www.w3.org/2000/svg">
<path d="M-67 -16H1977L1778.84 418.044C1763.77 451.056 1733.52 474.616 1697.82 481.138L459.717 707.331C414.623 715.569 369.102 695.24 345.14 656.16L-67 -16Z" fill="url(#paint0_linear_0_1)"/>
<g filter="url(#filter0_d_0_1)">
<path d="M145 53.8279L72.9999 53.2206L36.3999 25.1829L108.4 25.7902L145 53.8279Z" fill="#7AAAF8"/>
<path d="M133.6 130.755L61.6001 130.147L73.0001 53.2206L145 53.8279L133.6 130.755Z" fill="#7682CD"/>
<path d="M61.6 130.147L25 102.211L36.4 25.1829L73 53.0182L61.6 130.147Z" fill="#626CAA"/>
<path d="M1564 301.663L1528 301.36L1509.7 287.341L1545.7 287.644L1564 301.663Z" fill="#7AAAF8"/>
<path d="M1558.3 340.127L1522.3 339.823L1528 301.36L1564 301.663L1558.3 340.127Z" fill="#7682CD"/>
<path d="M1522.3 339.823L1504 325.855L1509.7 287.341L1528 301.258L1522.3 339.823Z" fill="#626CAA"/>
<path d="M1226 217.183L1181 216.804L1158.12 199.28L1203.12 199.66L1226 217.183Z" fill="#F68F87"/>
<path d="M1218.88 265.262L1173.88 264.883L1181 216.804L1226 217.183L1218.88 265.262Z" fill="#F17B71"/>
<path d="M1173.88 264.883L1151 247.422L1158.13 199.28L1181 216.677L1173.88 264.883Z" fill="#CC685F"/>
<path d="M563.036 223.239L540.575 222.12L528.343 199.28L550.804 200.399L563.036 223.239Z" fill="#FDD04F"/>
<path d="M547.694 243.106L525.198 241.987L540.575 222.12L563.036 223.239L547.694 243.106Z" fill="#F8A925"/>
<path d="M525.198 241.987L513 219.147L528.343 199.28L540.575 222.12L525.198 241.987Z" fill="#FFB53A"/>
<path d="M1636 470.045L1619.39 469.217L1610.35 452.328L1626.95 453.156L1636 470.045Z" fill="#FDD04F"/>
<path d="M1624.65 484.736L1608.02 483.908L1619.39 469.217L1636 470.045L1624.65 484.736Z" fill="#F8A925"/>
<path d="M1608.02 483.908L1599 467.019L1610.35 452.328L1619.39 469.217L1608.02 483.908Z" fill="#FFB53A"/>
<path d="M1885 130.271L1832.03 127.631L1803.18 73.7681L1856.15 76.4077L1885 130.271Z" fill="#70C286"/>
<path d="M1848.82 177.122L1795.77 174.483L1832.03 127.631L1885 130.271L1848.82 177.122Z" fill="#49A984"/>
<path d="M1795.77 174.483L1767 120.62L1803.18 73.7681L1832.03 127.631L1795.77 174.483Z" fill="#62A774"/>
<path d="M277.219 573.552L257.369 572.563L246.559 552.379L266.408 553.368L277.219 573.552Z" fill="#70C286"/>
<path d="M263.66 591.109L243.78 590.12L257.369 572.563L277.219 573.552L263.66 591.109Z" fill="#49A984"/>
<path d="M243.78 590.12L233 569.936L246.559 552.379L257.369 572.563L243.78 590.12Z" fill="#62A774"/>
<path d="M649 18.5935L627.4 18.4113L616.42 10L638.02 10.1822L649 18.5935Z" fill="#F68F87"/>
<path d="M645.58 41.6715L623.98 41.4893L627.4 18.4113L649 18.5935L645.58 41.6715Z" fill="#F17B71"/>
<path d="M623.98 41.4893L613 33.1084L616.42 10L627.4 18.3506L623.98 41.4893Z" fill="#CC685F"/>
</g>
<defs>
<filter id="filter0_d_0_1" x="25" y="10" width="1874" height="600.109" filterUnits="userSpaceOnUse" color-interpolation-filters="sRGB">
<feFlood flood-opacity="0" result="BackgroundImageFix"/>
<feColorMatrix in="SourceAlpha" type="matrix" values="0 0 0 0 0 0 0 0 0 0 0 0 0 0 0 0 0 0 127 0" result="hardAlpha"/>
<feOffset dx="7" dy="12"/>
<feGaussianBlur stdDeviation="3.5"/>
<feColorMatrix type="matrix" values="0 0 0 0 0 0 0 0 0 0 0 0 0 0 0 0 0 0 0.07 0"/>
<feBlend mode="normal" in2="BackgroundImageFix" result="effect1_dropShadow_0_1"/>
<feBlend mode="normal" in="SourceGraphic" in2="effect1_dropShadow_0_1" result="shape"/>
</filter>
<linearGradient id="paint0_linear_0_1" x1="-162.5" y1="-63.9999" x2="2120.78" y2="672.353" gradientUnits="userSpaceOnUse">
<stop stop-color="#FDD04F"/>
<stop offset="1" stop-color="#F17B71"/>
</linearGradient>
</defs>
</svg>
